# xmcd
#
# Track frame offsets: 
#        150
#        18704
#        44442
#        69630
#        90866
#        106836
#        130872
#        147937
#        166850
#        187861
#        206846
#        225308
#        245474
#        266426
#        284700
#        308444
#        325848
#
# Disc length: 4640 seconds
#
# Revision: 0
# Processed by: cddbd v1.5.2PL0 Copyright (c) Steve Scherf et al.
# Submitted via: ExactAudioCopy v0.99pb1
#
DISCID=e5121e11
DTITLE=Garou - Seul
DYEAR=1900
DGENRE=
TTITLE0=Gitan
TTITLE1=Que l'amour est violent
TTITLE2=Demande au soleil
TTITLE3=Seul
TTITLE4=Sous le vent
TTITLE5=Je n'attendais que vous
TTITLE6=Criminel
TTITLE7=Le calme plat
TTITLE8=Au plaisir du ton corps
TTITLE9=La moitie du ciel
TTITLE10=Lis dans mes yeux
TTITLE11=Jusqu'a me perdre
TTITLE12=Gambler
TTITLE13=L'adieu
TTITLE14=Casser la voix (bonus)
TTITLE15=L'amour existe encore (bonus)
TTITLE16=Belle (bonus)
EXTD=
EXTT0=
EXTT1=
EXTT2=
EXTT3=
EXTT4=
EXTT5=
EXTT6=
EXTT7=
EXTT8=
EXTT9=
EXTT10=
EXTT11=
EXTT12=
EXTT13=
EXTT14=
EXTT15=
EXTT16=
PLAYORDER=
